<?xml version="1.0" encoding="UTF-8"?>
<svg id="Layer_2" data-name="Layer 2" xmlns="http://www.w3.org/2000/svg" xmlns:xlink="http://www.w3.org/1999/xlink" viewBox="0 0 180 30.31">
  <defs>
    <style>
      .cls-1 {
        fill: #fff;
      }

      .cls-2 {
        fill: none;
      }

      .cls-3 {
        clip-path: url(#clippath-1);
      }

      .cls-4 {
        clip-path: url(#clippath);
      }
    </style>
    <clipPath id="clippath">
      <rect class="cls-2" width="180" height="30.31"/>
    </clipPath>
    <clipPath id="clippath-1">
      <rect class="cls-2" width="180" height="30.31"/>
    </clipPath>
  </defs>
  <g id="Layer_1-2" data-name="Layer 1">
    <g id="Zendura_Dental_Logo_with_Tagline" data-name="Zendura Dental Logo with Tagline">
      <g class="cls-4">
        <g class="cls-3">
          <path class="cls-1" d="M51.06.28h-6.3v15.19h6.3c4.51,0,7.82-2.66,7.82-7.58S55.57.28,51.06.28M51.06,11.94h-2.32V3.82h2.32c2.17,0,3.76,1.36,3.76,4.08s-1.58,4.04-3.76,4.04M11.49,3.39V.28H.04v3.53h6.46L.02,12.37v3.11h11.76v-3.53h-6.74L11.49,3.39ZM14.3,3.79h11.73V.29h-11.73v3.5ZM14.3,9.63h11.73v-3.5h-11.73v3.5ZM14.3,15.47h11.73v-3.5h-11.73v3.5ZM81.5,2.17V.32h-4.37v15.18h4.37V6.14c1.23-1.03,2.38-1.5,4.29-1.5l.26-4.4c-2.23,0-3.67.91-4.55,1.94M93.3.03c-2.7,0-4.49.94-5.93,2.73l2.73,2.47c.7-.97,1.44-1.58,2.76-1.58s2.06.85,2.06,2.2v1.03c-.65-.15-1.26-.26-2.41-.26-3.29,0-5.58,1.76-5.58,4.7,0,2.76,1.91,4.52,4.46,4.52,1.94,0,2.99-.79,3.76-1.56l.06,1.23h4.08V5.61c0-3.58-2.52-5.58-5.99-5.58M94.92,11.6c-.47.44-1.06.85-1.88.85-1,0-1.67-.47-1.67-1.5s.82-1.56,2-1.56c.68,0,1.15.09,1.56.21v2ZM157.11.28h-12.51v1.14h5.63v14.06h1.24V1.42h5.65V.28ZM162.16.28l-6.46,15.19h1.34l2.05-4.79h7.41l2.05,4.79h1.34l-6.44-15.19h-1.3ZM159.54,9.54l3.27-7.66,3.25,7.66h-6.52ZM141.19,13.3L131.8.28h-1.2v15.19h1.26V2.46l9.36,13.02h1.18V.28h-1.22v13.02ZM173.47,14.34V.28h-1.26v15.19h7.68v-1.14h-6.42ZM109.9.28h-5.1v15.19h5.1c4.04,0,7.86-2.48,7.86-7.6s-3.82-7.6-7.86-7.6M109.9,14.34h-3.84V1.42h3.84c3.31,0,6.6,2.03,6.6,6.46s-3.29,6.46-6.6,6.46M121.93,8.16h5.59v-1.12h-5.59V1.42h6.13V.28h-7.39v15.19h7.41v-1.14h-6.15v-6.17ZM38.83.9C37.24,0,35.7,0,35.49,0h0c-.21,0-1.75,0-3.35.9-1,.56-1.79,1.34-2.37,2.3-.68,1.14-1.02,2.52-1.02,4.1v8.21h3.99V7.3c0-.52,0-2.11,1.26-2.87.74-.44,1.33-.45,1.49-.45.16,0,.75.01,1.49.45,1.27.76,1.26,2.35,1.26,2.87v8.21h3.99V7.3c0-1.58-.34-2.96-1.02-4.1-.57-.97-1.37-1.74-2.37-2.3M70.29,8.52c0,.52,0,2.11-1.26,2.87-.74.44-1.33.45-1.49.45-.16,0-.75-.01-1.49-.45-1.27-.76-1.26-2.35-1.26-2.87V.32h-3.99v8.21c0,1.58.34,2.96,1.02,4.1.57.97,1.37,1.74,2.37,2.3,1.59.89,3.14.9,3.35.9h0c.21,0,1.75,0,3.35-.9,1-.56,1.79-1.34,2.37-2.3.68-1.14,1.02-2.52,1.02-4.1V.32h-3.99v8.21Z"/>
          <path class="cls-1" d="M102.37,1.6c0,.9-.7,1.6-1.62,1.6s-1.63-.7-1.63-1.6S99.85.01,100.75.01s1.62.7,1.62,1.58M99.53,1.6c0,.7.52,1.26,1.24,1.26s1.21-.56,1.21-1.25-.51-1.27-1.22-1.27-1.23.57-1.23,1.26M100.5,2.43h-.37V.84c.14-.03.35-.05.61-.05.3,0,.43.05.55.12.09.07.15.19.15.35,0,.17-.14.31-.33.37v.02c.15.06.24.17.29.39.05.24.08.34.12.4h-.4c-.05-.06-.08-.2-.13-.39-.03-.17-.12-.25-.33-.25h-.17v.64ZM100.51,1.53h.17c.2,0,.37-.07.37-.23,0-.14-.11-.24-.34-.24-.1,0-.16,0-.2.02v.45Z"/>
          <path class="cls-1" d="M3.04,30.31c-.44,0-.84-.08-1.21-.24-.37-.16-.69-.39-.97-.68-.28-.29-.49-.64-.64-1.04C.08,27.95,0,27.51,0,27.04s.08-.91.23-1.31c.15-.4.36-.75.64-1.04.27-.29.6-.52.97-.68.37-.16.77-.24,1.21-.24s.81.08,1.14.23c.34.16.62.35.86.59.24.24.4.48.51.74l-.52.23c-.17-.38-.43-.69-.77-.92-.34-.23-.75-.35-1.22-.35s-.92.12-1.29.35c-.37.23-.67.55-.88.97-.21.41-.32.89-.32,1.43s.11,1.03.32,1.45c.21.41.51.74.88.97.37.23.81.34,1.29.34s.88-.11,1.22-.34c.34-.23.6-.54.77-.92l.52.23c-.1.26-.27.5-.51.74-.24.24-.52.43-.86.59-.34.16-.72.23-1.14.23"/>
          <polygon class="cls-1" points="7.71 30.21 7.71 23.87 8.26 23.87 8.26 29.7 11.11 29.7 11.11 30.21 7.71 30.21"/>
          <polygon class="cls-1" points="13.09 30.21 13.09 23.87 17.08 23.87 17.08 24.38 13.63 24.38 13.63 26.78 16.91 26.78 16.91 27.28 13.63 27.28 13.63 29.7 17.08 29.7 17.08 30.21 13.09 30.21"/>
          <path class="cls-1" d="M18.5,30.21l2.33-6.34h.56l2.33,6.34h-.59l-.58-1.62h-2.89l-.58,1.62h-.59ZM19.84,28.09h2.53l-1.36-3.79h.2l-1.37,3.79Z"/>
          <path class="cls-1" d="M25.52,30.21v-6.34h2.12c.41,0,.77.08,1.07.24.31.16.54.38.71.67.17.29.26.62.26,1,0,.45-.12.84-.37,1.16-.24.32-.58.54-1,.66l1.5,2.6h-.65l-1.57-2.77.46.26h-1.99v2.51h-.54ZM26.06,27.19h1.59c.29,0,.55-.06.77-.17.22-.12.39-.28.52-.49.12-.21.19-.46.19-.74s-.06-.53-.19-.74c-.12-.21-.3-.37-.52-.48-.22-.12-.48-.17-.77-.17h-1.59v2.81Z"/>
          <path class="cls-1" d="M33.39,30.21l2.33-6.34h.56l2.33,6.34h-.59l-.58-1.62h-2.89l-.58,1.62h-.59ZM34.73,28.09h2.53l-1.36-3.79h.2l-1.37,3.79Z"/>
          <polygon class="cls-1" points="40.41 30.21 40.41 23.87 40.95 23.87 40.95 29.7 43.8 29.7 43.8 30.21 40.41 30.21"/>
          <rect class="cls-1" x="45.78" y="23.87" width=".54" height="6.34"/>
          <path class="cls-1" d="M51.64,30.31c-.45,0-.86-.08-1.23-.24-.37-.16-.69-.39-.97-.68-.27-.29-.48-.64-.63-1.03-.15-.4-.23-.83-.23-1.31s.08-.91.23-1.31c.15-.4.36-.74.64-1.04.27-.29.6-.52.97-.68.37-.16.78-.24,1.22-.24s.83.08,1.17.23c.34.16.63.35.87.59.24.24.4.48.51.74l-.51.24c-.17-.39-.43-.7-.78-.93-.35-.23-.77-.34-1.25-.34s-.92.12-1.3.35c-.38.23-.67.55-.89.97-.22.41-.32.89-.32,1.44s.11,1.02.32,1.44c.22.41.51.74.89.97.38.23.81.34,1.3.34.44,0,.83-.1,1.18-.29.35-.2.62-.46.82-.8.2-.34.3-.73.3-1.17v-.3l.25.26h-2.55v-.48h2.86v.47c0,.4-.07.77-.22,1.11-.14.34-.34.64-.6.9-.26.26-.56.46-.91.6-.35.14-.73.22-1.14.22"/>
          <polygon class="cls-1" points="56.67 30.21 56.67 23.87 57.13 23.87 60.97 29.38 60.79 29.38 60.79 23.87 61.34 23.87 61.34 30.21 60.88 30.21 57.02 24.67 57.21 24.67 57.21 30.21 56.67 30.21"/>
          <polygon class="cls-1" points="63.79 30.21 63.79 23.87 67.78 23.87 67.78 24.38 64.33 24.38 64.33 26.78 67.61 26.78 67.61 27.28 64.33 27.28 64.33 29.7 67.78 29.7 67.78 30.21 63.79 30.21"/>
          <path class="cls-1" d="M69.85,30.21v-6.34h2.12c.41,0,.77.08,1.07.24.31.16.54.38.71.67.17.29.26.62.26,1,0,.45-.12.84-.37,1.16-.24.32-.58.54-1,.66l1.5,2.6h-.65l-1.57-2.77.46.26h-1.99v2.51h-.54ZM70.4,27.19h1.59c.29,0,.55-.06.77-.17.22-.12.39-.28.52-.49.12-.21.19-.46.19-.74s-.06-.53-.19-.74c-.12-.21-.3-.37-.52-.48-.22-.12-.48-.17-.77-.17h-1.59v2.81Z"/>
          <path class="cls-1" d="M79.77,30.31c-.33,0-.62-.06-.88-.19-.26-.12-.46-.3-.61-.53-.15-.23-.22-.5-.22-.81,0-.25.05-.47.14-.67.09-.2.21-.38.35-.53.14-.16.3-.3.46-.42.16-.12.32-.24.47-.34l.33-.23c.19-.14.37-.27.54-.41.16-.14.3-.28.4-.45.1-.16.15-.34.15-.54,0-.26-.09-.48-.26-.65-.17-.17-.38-.26-.63-.26s-.47.09-.64.26c-.17.17-.25.39-.25.65,0,.18.04.35.13.52.09.16.19.32.31.46.12.14.25.28.37.4l3.54,3.62h-.75l-3.21-3.25c-.13-.14-.27-.29-.41-.46-.14-.17-.27-.37-.37-.58-.1-.21-.16-.45-.16-.7,0-.28.07-.53.2-.75.13-.22.3-.39.52-.51.22-.12.46-.19.73-.19s.5.06.72.18c.22.12.39.29.52.5.13.21.2.46.2.74s-.07.54-.2.76c-.13.22-.29.41-.49.57-.2.16-.39.31-.58.44l-.32.22c-.2.15-.4.3-.59.45-.19.15-.34.32-.46.5-.12.18-.17.39-.17.63,0,.32.11.57.32.75.22.18.49.27.82.27.23,0,.43-.04.6-.12.18-.08.33-.18.46-.31.13-.13.25-.27.36-.42.11-.15.21-.3.3-.44l.98-1.45h.64l-1.14,1.72c-.09.14-.2.3-.33.48-.13.18-.28.34-.45.51-.17.16-.38.29-.61.4-.24.1-.51.16-.82.16"/>
          <path class="cls-1" d="M87.68,30.21v-6.34h2.12c.41,0,.77.08,1.07.24.31.16.54.38.71.67.17.29.26.62.26,1,0,.45-.12.84-.37,1.16-.24.32-.58.54-1,.66l1.5,2.6h-.65l-1.57-2.77.46.26h-1.99v2.51h-.54ZM88.22,27.19h1.59c.29,0,.55-.06.77-.17.22-.12.39-.28.52-.49.12-.21.19-.46.19-.74s-.06-.53-.19-.74c-.12-.21-.3-.37-.52-.48-.22-.12-.48-.17-.77-.17h-1.59v2.81Z"/>
          <polygon class="cls-1" points="93.95 30.21 93.95 23.87 97.94 23.87 97.94 24.38 94.5 24.38 94.5 26.78 97.77 26.78 97.77 27.28 94.5 27.28 94.5 29.7 97.94 29.7 97.94 30.21 93.95 30.21"/>
          <polygon class="cls-1" points="101.13 30.21 101.13 24.38 99.36 24.38 99.36 23.87 103.44 23.87 103.44 24.38 101.69 24.38 101.69 30.21 101.13 30.21"/>
          <path class="cls-1" d="M104.15,30.21l2.33-6.34h.56l2.33,6.34h-.59l-.58-1.62h-2.89l-.58,1.62h-.59ZM105.5,28.09h2.53l-1.36-3.79h.2l-1.37,3.79Z"/>
          <rect class="cls-1" x="111.17" y="23.87" width=".54" height="6.34"/>
          <polygon class="cls-1" points="114.16 30.21 114.16 23.87 114.62 23.87 118.47 29.38 118.29 29.38 118.29 23.87 118.83 23.87 118.83 30.21 118.37 30.21 114.51 24.67 114.71 24.67 114.71 30.21 114.16 30.21"/>
          <polygon class="cls-1" points="121.28 30.21 121.28 23.87 125.27 23.87 125.27 24.38 121.83 24.38 121.83 26.78 125.1 26.78 125.1 27.28 121.83 27.28 121.83 29.7 125.27 29.7 125.27 30.21 121.28 30.21"/>
          <path class="cls-1" d="M127.35,30.21v-6.34h2.12c.41,0,.77.08,1.07.24.31.16.54.38.71.67.17.29.26.62.26,1,0,.45-.12.84-.37,1.16-.24.32-.58.54-1,.66l1.5,2.6h-.65l-1.57-2.77.46.26h-1.99v2.51h-.54ZM127.89,27.19h1.59c.29,0,.55-.06.77-.17.22-.12.39-.28.52-.49.12-.21.19-.46.19-.74s-.06-.53-.19-.74c-.12-.21-.3-.37-.52-.48-.22-.12-.48-.17-.77-.17h-1.59v2.81Z"/>
          <polygon class="cls-1" points="135.88 30.21 135.88 23.87 136.34 23.87 138.7 27.39 138.48 27.39 140.85 23.87 141.31 23.87 141.31 30.21 140.77 30.21 140.77 24.68 140.89 24.76 138.61 28.19 138.58 28.19 136.28 24.76 136.42 24.68 136.42 30.21 135.88 30.21"/>
          <path class="cls-1" d="M143.11,30.21l2.33-6.34h.56l2.33,6.34h-.59l-.58-1.62h-2.89l-.58,1.62h-.59ZM144.45,28.09h2.53l-1.36-3.79h.2l-1.37,3.79Z"/>
          <polygon class="cls-1" points="150.81 30.21 150.81 24.38 149.04 24.38 149.04 23.87 153.12 23.87 153.12 24.38 151.36 24.38 151.36 30.21 150.81 30.21"/>
          <polygon class="cls-1" points="154.91 30.21 154.91 23.87 158.9 23.87 158.9 24.38 155.45 24.38 155.45 26.78 158.73 26.78 158.73 27.28 155.45 27.28 155.45 29.7 158.9 29.7 158.9 30.21 154.91 30.21"/>
          <path class="cls-1" d="M160.97,30.21v-6.34h2.12c.41,0,.77.08,1.07.24.31.16.54.38.71.67.17.29.26.62.26,1,0,.45-.12.84-.37,1.16-.24.32-.58.54-1,.66l1.5,2.6h-.65l-1.57-2.77.46.26h-1.99v2.51h-.54ZM161.52,27.19h1.59c.29,0,.55-.06.77-.17.22-.12.39-.28.52-.49.12-.21.19-.46.19-.74s-.06-.53-.19-.74c-.12-.21-.3-.37-.52-.48-.22-.12-.48-.17-.77-.17h-1.59v2.81Z"/>
          <rect class="cls-1" x="167.25" y="23.87" width=".54" height="6.34"/>
          <path class="cls-1" d="M169.59,30.21l2.33-6.34h.56l2.33,6.34h-.59l-.58-1.62h-2.89l-.58,1.62h-.59ZM170.93,28.09h2.53l-1.36-3.79h.2l-1.37,3.79Z"/>
          <polygon class="cls-1" points="176.61 30.21 176.61 23.87 177.15 23.87 177.15 29.7 180 29.7 180 30.21 176.61 30.21"/>
        </g>
      </g>
    </g>
  </g>
</svg>